<?xml version="1.0" standalone="no"?>
<!DOCTYPE svg PUBLIC "-//W3C//DTD SVG 20010904//EN"
 "http://www.w3.org/TR/2001/REC-SVG-20010904/DTD/svg10.dtd">
<svg version="1.0" xmlns="http://www.w3.org/2000/svg"
 width="2160.000000pt" height="2160.000000pt" viewBox="0 0 2160.000000 2160.000000"
 preserveAspectRatio="xMidYMid meet">
<metadata>
Created by potrace 1.14, written by Peter Selinger 2001-2017
</metadata>
<g transform="translate(0.000000,2160.000000) scale(0.100000,-0.100000)"
fill="#000000" stroke="none">
<path d="M0 10800 l0 -10800 10800 0 10800 0 0 10800 0 10800 -10800 0 -10800
0 0 -10800z m10925 6840 c79 -12 183 -44 235 -73 100 -56 209 -156 251 -231
26 -47 99 -198 104 -216 1 -3 18 -41 39 -85 21 -44 46 -98 56 -120 10 -22 34
-74 53 -115 37 -79 87 -188 117 -255 10 -22 45 -98 79 -168 33 -71 61 -134 61
-141 0 -7 4 -16 9 -21 5 -6 34 -64 64 -130 30 -66 67 -147 82 -180 15 -33 38
-85 52 -115 14 -30 40 -86 58 -125 53 -110 115 -247 115 -250 0 -2 25 -57 56
-122 31 -65 73 -156 94 -203 21 -47 54 -121 75 -165 20 -44 45 -98 55 -120 10
-22 41 -89 69 -148 28 -59 51 -110 51 -113 0 -3 27 -62 60 -131 33 -69 60
-127 60 -130 0 -2 15 -37 34 -76 94 -200 126 -268 126 -272 0 -2 23 -52 51
-112 27 -59 57 -124 66 -143 9 -19 20 -43 24 -52 5 -10 47 -102 94 -205 99
-218 134 -292 145 -314 8 -15 131 -284 185 -404 15 -33 40 -87 55 -120 15 -33
37 -80 48 -105 11 -25 40 -88 65 -140 24 -52 52 -113 62 -135 10 -22 31 -69
48 -105 16 -36 40 -87 52 -115 13 -27 49 -103 79 -168 31 -65 56 -120 56 -123
0 -3 23 -53 51 -112 28 -59 77 -165 109 -237 57 -128 78 -174 179 -387 28 -59
51 -110 51 -113 0 -3 17 -42 39 -88 37 -78 56 -120 123 -267 16 -36 34 -73 39
-83 6 -10 27 -57 48 -105 39 -87 92 -203 136 -297 79 -167 120 -255 136 -292
30 -70 120 -267 131 -287 6 -11 45 -97 88 -190 99 -220 170 -373 237 -514 29
-63 53 -115 53 -118 0 -2 21 -48 46 -101 25 -54 78 -168 116 -253 39 -85 94
-206 124 -269 30 -62 54 -116 54 -120 0 -3 7 -19 16 -36 16 -30 87 -184 139
-300 37 -83 75 -165 90 -195 7 -14 45 -95 83 -181 39 -86 90 -196 113 -245 45
-97 183 -399 219 -479 12 -27 37 -81 55 -120 18 -38 44 -95 58 -125 35 -77 74
-162 115 -250 19 -41 47 -104 64 -140 16 -36 38 -83 48 -105 53 -110 130 -277
130 -280 0 -4 29 -69 115 -250 23 -49 48 -107 54 -127 7 -21 16 -40 21 -43 18
-11 69 -192 75 -266 7 -74 -15 -249 -34 -273 -5 -6 -12 -22 -16 -35 -16 -52
-154 -249 -176 -250 -4 -1 -35 -20 -69 -43 -201 -134 -512 -141 -704 -14 -28
18 -59 37 -68 42 -9 5 -76 66 -150 136 -73 70 -142 135 -154 145 -80 69 -171
151 -188 169 -12 12 -43 38 -71 59 -27 21 -59 46 -70 56 -28 25 -130 107 -195
156 -30 23 -65 51 -77 62 -12 12 -25 21 -29 21 -7 0 -83 57 -99 74 -6 6 -33
26 -60 45 -28 19 -88 62 -135 95 -47 33 -119 82 -160 109 -40 28 -79 54 -85
58 -16 13 -178 119 -181 119 -8 0 -119 74 -122 82 -2 4 -9 8 -16 8 -10 0 -43
19 -132 77 -10 7 -39 24 -64 38 -25 14 -63 36 -85 49 -22 13 -71 41 -110 61
-38 21 -75 42 -82 47 -16 12 -152 83 -378 196 -763 381 -1451 612 -2120 712
-182 28 -572 38 -776 21 -372 -31 -829 -133 -1264 -281 -182 -62 -540 -203
-690 -273 -303 -139 -423 -198 -575 -280 -30 -16 -73 -39 -95 -51 -22 -11 -82
-44 -133 -73 -51 -29 -97 -53 -102 -53 -5 0 -15 -7 -23 -15 -8 -8 -46 -31 -83
-51 -38 -21 -94 -54 -124 -74 -30 -21 -71 -46 -90 -56 -43 -24 -112 -69 -297
-193 -78 -53 -150 -100 -160 -106 -10 -5 -43 -29 -74 -52 -31 -24 -59 -43 -63
-43 -4 0 -16 -9 -28 -20 -12 -11 -40 -32 -62 -47 -23 -15 -75 -54 -116 -85
-41 -32 -79 -62 -85 -66 -43 -33 -101 -78 -105 -83 -3 -3 -39 -32 -80 -64 -41
-32 -93 -75 -116 -94 -23 -20 -67 -58 -98 -85 -31 -27 -65 -57 -76 -66 -56
-48 -196 -178 -280 -260 -123 -119 -242 -198 -345 -230 -67 -21 -100 -25 -205
-25 -111 0 -135 3 -210 29 -96 32 -209 104 -273 173 -38 41 -119 162 -125 188
-2 6 -12 39 -23 75 -12 37 -23 105 -26 161 -8 141 7 198 112 424 15 33 41 89
57 125 17 36 45 97 63 135 18 39 63 137 100 218 36 82 70 156 75 165 13 24 80
170 80 176 0 2 26 60 58 128 33 67 75 159 95 203 19 44 53 118 75 165 22 47
63 137 92 200 29 63 69 151 90 195 42 90 87 188 131 285 17 36 40 88 53 115
13 28 35 75 49 105 14 30 39 84 55 120 17 36 44 97 62 135 38 84 81 178 121
262 16 34 29 64 29 66 0 2 27 62 61 133 33 71 73 156 88 189 16 33 43 94 62
135 18 41 52 118 77 170 24 52 59 129 78 170 43 94 79 171 109 235 36 75 90
194 160 350 35 77 70 154 79 170 8 17 41 86 72 155 93 206 114 252 144 315 15
33 37 80 48 105 11 25 34 74 50 110 16 36 66 144 110 240 44 96 99 216 122
265 23 50 55 119 71 155 16 36 40 88 53 115 13 28 35 75 48 105 14 30 39 84
56 120 50 107 92 200 134 295 22 49 46 101 53 115 8 14 28 57 46 95 17 39 42
93 54 120 13 28 33 73 45 100 12 28 37 82 55 120 29 63 56 120 115 250 10 22
38 83 63 135 63 136 99 215 96 215 -2 0 9 23 23 50 15 28 38 75 51 105 14 30
43 95 66 143 23 49 41 90 41 92 0 2 20 46 44 97 40 84 118 254 198 428 16 36
45 98 64 137 19 40 34 75 34 77 0 2 20 46 44 98 24 51 79 170 121 263 42 94
83 181 90 195 8 14 26 52 40 85 15 33 43 92 61 131 19 39 34 74 34 77 0 3 25
59 56 124 30 65 64 136 74 158 10 22 37 79 59 128 23 48 41 89 41 92 0 2 23
52 51 112 66 140 81 173 179 388 45 99 97 212 115 250 19 39 55 117 80 175 26
58 66 146 90 195 23 50 74 160 113 245 39 85 87 191 107 235 21 44 47 103 60
130 12 28 41 91 64 140 23 50 48 104 56 120 7 17 50 104 94 195 65 134 91 176
138 226 105 110 253 182 414 203 35 5 66 9 69 10 3 0 37 -4 75 -9z"/>
<path d="M10775 14604 c-30 -63 -55 -117 -55 -119 0 -2 -22 -50 -49 -107 -68
-145 -107 -230 -152 -330 -21 -48 -43 -95 -48 -105 -10 -17 -64 -134 -118
-253 -44 -98 -84 -184 -115 -250 -29 -63 -37 -80 -93 -205 -15 -33 -42 -91
-60 -130 -55 -118 -92 -198 -115 -250 -12 -27 -51 -112 -86 -187 -35 -76 -64
-140 -64 -142 0 -3 -26 -60 -59 -128 -63 -133 -91 -193 -128 -278 -14 -30 -43
-93 -65 -140 -22 -47 -52 -112 -68 -145 -15 -33 -37 -80 -48 -105 -11 -25 -36
-80 -56 -123 -20 -42 -36 -79 -36 -81 0 -2 -23 -53 -51 -113 -56 -119 -101
-217 -129 -278 -10 -22 -37 -80 -59 -130 -23 -49 -52 -112 -65 -140 -24 -48
-60 -127 -104 -225 -11 -25 -39 -85 -62 -135 -23 -49 -51 -110 -62 -135 -11
-25 -33 -72 -48 -105 -28 -59 -68 -147 -108 -235 -57 -127 -105 -230 -127
-275 -34 -71 -85 -184 -85 -190 0 -2 -27 -62 -61 -132 -68 -144 -93 -198 -139
-298 -18 -38 -45 -99 -62 -134 -17 -36 -47 -104 -69 -152 -21 -48 -42 -96 -48
-106 -5 -10 -21 -43 -34 -73 -14 -30 -41 -89 -60 -130 -43 -92 -76 -166 -133
-292 -24 -54 -64 -141 -90 -195 -90 -191 -151 -326 -150 -333 0 -3 -14 -32
-31 -65 -57 -112 -67 -143 -53 -160 7 -8 17 -15 23 -15 5 0 48 22 96 49 179
102 415 224 606 313 253 119 274 129 385 175 456 191 918 336 1336 419 756
150 1421 113 2240 -125 225 -65 587 -192 744 -261 36 -15 101 -43 145 -61 44
-18 85 -36 90 -39 6 -4 60 -29 120 -55 167 -73 579 -285 717 -368 92 -55 116
-63 136 -44 18 18 23 5 -91 247 -27 57 -58 127 -69 155 -11 27 -23 54 -27 60
-5 5 -41 82 -81 170 -148 328 -150 331 -208 455 -22 47 -58 126 -80 175 -22
50 -58 128 -80 175 -63 134 -106 227 -162 350 -29 63 -63 140 -77 170 -14 30
-47 101 -74 158 -27 56 -49 104 -49 106 0 5 -49 112 -126 275 -30 62 -54 116
-54 119 0 3 -11 28 -24 56 -13 28 -38 80 -54 116 -17 36 -46 99 -65 140 -19
41 -49 107 -67 145 -17 39 -40 88 -50 110 -11 22 -30 65 -44 95 -13 30 -47
105 -76 165 -29 61 -68 146 -88 190 -19 44 -60 132 -90 195 -30 63 -62 135
-72 160 -16 39 -55 125 -141 305 -10 22 -34 74 -53 115 -49 109 -79 174 -124
270 -34 73 -127 278 -219 480 -27 59 -59 130 -103 225 -16 33 -42 89 -58 125
-16 36 -40 88 -52 115 -13 28 -50 106 -82 174 -32 68 -58 125 -58 126 0 2 -20
45 -44 97 -24 51 -53 116 -65 143 -35 78 -61 134 -96 210 -95 203 -115 247
-115 250 0 2 -23 53 -51 112 -28 59 -60 128 -71 153 -11 25 -26 56 -33 70 -7
14 -34 72 -60 130 -42 97 -77 150 -96 150 -5 0 -33 -52 -64 -116z"/>
</g>
</svg>
